<svg width="34" height="34" viewBox="0 0 34 34" fill="none" xmlns="http://www.w3.org/2000/svg">
<circle cx="17" cy="17" r="17" fill="white"/>
<circle cx="17" cy="17" r="16" stroke="black" stroke-opacity="0.75" stroke-width="2"/>
<path d="M16.8991 9.56C18.2858 9.56 19.3991 9.94 20.2391 10.7C21.0925 11.4467 21.5191 12.48 21.5191 13.8C21.5191 15.1067 21.0991 16.1067 20.2591 16.8C19.4191 17.48 18.3058 17.82 16.9191 17.82L16.8391 19.36H14.3791L14.2791 15.96H15.1791C16.3391 15.96 17.2325 15.8067 17.8591 15.5C18.4858 15.1933 18.7991 14.6333 18.7991 13.82C18.7991 13.2333 18.6258 12.7667 18.2791 12.42C17.9458 12.0733 17.4858 11.9 16.8991 11.9C16.2858 11.9 15.8058 12.0667 15.4591 12.4C15.1258 12.7333 14.9591 13.1933 14.9591 13.78H12.3191C12.3058 12.9667 12.4791 12.24 12.8391 11.6C13.1991 10.96 13.7258 10.46 14.4191 10.1C15.1258 9.74 15.9525 9.56 16.8991 9.56ZM15.5991 24.14C15.0925 24.14 14.6725 23.9867 14.3391 23.68C14.0191 23.36 13.8591 22.9667 13.8591 22.5C13.8591 22.0333 14.0191 21.6467 14.3391 21.34C14.6725 21.02 15.0925 20.86 15.5991 20.86C16.0925 20.86 16.4991 21.02 16.8191 21.34C17.1391 21.6467 17.2991 22.0333 17.2991 22.5C17.2991 22.9667 17.1391 23.36 16.8191 23.68C16.4991 23.9867 16.0925 24.14 15.5991 24.14Z" fill="black" fill-opacity="0.75"/>
</svg>
